<?xml version="1.0" encoding="UTF-8" standalone="no"?>
<!-- Created with Inkscape (http://www.inkscape.org/) -->

<svg
   xmlns:dc="http://purl.org/dc/elements/1.1/"
   xmlns:cc="http://creativecommons.org/ns#"
   xmlns:rdf="http://www.w3.org/1999/02/22-rdf-syntax-ns#"
   xmlns:svg="http://www.w3.org/2000/svg"
   xmlns="http://www.w3.org/2000/svg"
   xmlns:sodipodi="http://sodipodi.sourceforge.net/DTD/sodipodi-0.dtd"
   xmlns:inkscape="http://www.inkscape.org/namespaces/inkscape"
   version="1.0"
   width="111.52"
   height="100"
   id="svg3017"
   inkscape:version="0.47 r22583"
   sodipodi:docname="title_logo.svg">
  <metadata
     id="metadata3290">
    <rdf:RDF>
      <cc:Work
         rdf:about="">
        <dc:format>image/svg+xml</dc:format>
        <dc:type
           rdf:resource="http://purl.org/dc/dcmitype/StillImage" />
      </cc:Work>
    </rdf:RDF>
  </metadata>
  <sodipodi:namedview
     pagecolor="#ffffff"
     bordercolor="#666666"
     borderopacity="1"
     objecttolerance="10"
     gridtolerance="10"
     guidetolerance="10"
     inkscape:pageopacity="0"
     inkscape:pageshadow="2"
     inkscape:window-width="1440"
     inkscape:window-height="829"
     id="namedview3288"
     showgrid="false"
     inkscape:zoom="2.36"
     inkscape:cx="-15.002714"
     inkscape:cy="50"
     inkscape:window-x="0"
     inkscape:window-y="25"
     inkscape:window-maximized="1"
     inkscape:current-layer="svg3017" />
  <defs
     id="defs3019">
    <inkscape:perspective
       sodipodi:type="inkscape:persp3d"
       inkscape:vp_x="0 : 50 : 1"
       inkscape:vp_y="0 : 1000 : 0"
       inkscape:vp_z="111.52 : 50 : 1"
       inkscape:persp3d-origin="55.759998 : 33.333333 : 1"
       id="perspective3292" />
    <inkscape:perspective
       id="perspective3163"
       inkscape:persp3d-origin="0.5 : 0.33333333 : 1"
       inkscape:vp_z="1 : 0.5 : 1"
       inkscape:vp_y="0 : 1000 : 0"
       inkscape:vp_x="0 : 0.5 : 1"
       sodipodi:type="inkscape:persp3d" />
  </defs>
  <g
     transform="matrix(0.16987704,0,0,0.16987704,1.6189992,12.722704)"
     id="layer1"
     inkscape:label="Layer 1"
     inkscape:groupmode="layer">
    <path
       style="fill:#ffffff;stroke:#231f20;stroke-width:10.86019707;stroke-linecap:round;stroke-linejoin:round"
       d="m 177.6632,205.01609 h -19.35933 v -30.44347 c 0,0 0,-7.64622 -7.79526,-7.64622 H 55.241438 c -7.80032,0 -7.80032,7.64622 -7.80032,7.64622 v 30.44347 H 29.944714 27.714252 l 75.904048,65.80885 76.12887,-65.80885 h -2.08397 z"
       id="path2910" />
    <g
       transform="matrix(1.2630046,0,0,1.2630046,-192.52218,-139.86121)"
       id="g2912">
      <path
         style="fill:#2eb3dc"
         d="m 303.672,345.221 c 0,4.495 -3.678,8.173 -8.173,8.173 H 172.853 c -4.495,0 -8.173,-3.678 -8.173,-8.173 v -65.688 c 0,-4.495 3.678,-8.173 8.173,-8.173 h 122.646 c 4.495,0 8.173,3.678 8.173,8.173 v 65.688 z"
         id="path2914" />
      <path
         style="fill:none;stroke:#231f20;stroke-width:7.62669992;stroke-linecap:round;stroke-linejoin:round"
         d="m 303.672,345.221 c 0,4.495 -3.678,8.173 -8.173,8.173 H 172.853 c -4.495,0 -8.173,-3.678 -8.173,-8.173 v -65.688 c 0,-4.495 3.678,-8.173 8.173,-8.173 h 122.646 c 4.495,0 8.173,3.678 8.173,8.173 v 65.688 z"
         id="path2916" />
    </g>
    <polyline
       transform="matrix(1.2630046,0,0,1.2630046,-192.52218,-139.86121)"
       style="fill:#231f20"
       points="164.68,270.876 231.638,219.65 303.672,270.876 "
       id="polyline2918" />
    <g
       transform="matrix(1.2630046,0,0,1.2630046,-192.52218,-139.86121)"
       id="g2920">
      <polygon
         style="fill:#231f20"
         points="235.253,302.394 232.881,298.521 178.416,337.145 237.621,306.272 "
         id="polygon2922" />
    </g>
    <g
       transform="matrix(1.2630046,0,0,1.2630046,-192.52218,-139.86121)"
       id="g2924">
      <polygon
         style="fill:#231f20"
         points="235.253,302.394 232.838,306.242 290.706,337.145 237.661,298.546 "
         id="polygon2926" />
    </g>
    <path
       style="fill:#ffffff;stroke:#231f20;stroke-width:6.40217066;stroke-linecap:round;stroke-linejoin:round"
       d="m 187.24689,205.01609 h -28.94302 v -30.44347 c 0,0 0,-7.64622 -7.79526,-7.64622 H 55.206069 c -7.796526,0 -7.796526,7.64622 -7.796526,7.64622 v 30.44347 H 19.388525 17.158059 l 86.460241,65.80885 85.71255,-65.80885 h -2.08396 z"
       id="path2928" />
    <line
       style="fill:#ffffff;stroke:#231f20;stroke-width:6.40217066;stroke-linecap:round;stroke-linejoin:round"
       x1="84.911942"
       y1="202.86769"
       x2="121.19427"
       y2="202.86769"
       id="line2930" />
    <line
       style="fill:#ffffff;stroke:#231f20;stroke-width:6.40217066;stroke-linecap:round;stroke-linejoin:round"
       x1="84.911942"
       y1="218.86748"
       x2="121.19427"
       y2="218.86748"
       id="line2932" />
    <g
       transform="matrix(1.2630046,0,0,1.2630046,-192.52218,-139.86121)"
       id="g2934">
      <polyline
         style="fill:none;stroke:#231f20;stroke-width:4.91820002;stroke-linecap:round;stroke-linejoin:round"
         points="   168.218,272.971 234.545,321.641 300.476,273.263  "
         id="polyline2936" />
    </g>
    <g
       transform="matrix(1.2630046,0,0,1.2630046,-192.52218,-139.86121)"
       id="g2938">
      <g
         id="g2940">
        <path
           style="fill:#231f20"
           d="M 642.008,285.148 H 623.19 c -4.78,0 -7.175,1.595 -7.175,4.785 0,3.004 2.407,4.506 7.224,4.506 h 4.556 c 14.016,0.22 21.004,6.476 20.974,18.771 -0.063,12.482 -7.059,18.739 -20.974,18.771 l -19.004,-0.051 c -4.543,0.037 -6.827,-2.123 -6.853,-6.474 0.025,-4.878 2.297,-7.336 6.803,-7.366 h 18.955 c 4.668,0 7.026,-1.595 7.088,-4.786 0,-3.097 -2.315,-4.674 -6.945,-4.734 h -4.55 c -14.175,0.061 -21.244,-6.245 -21.214,-18.916 -0.094,-12.389 6.901,-18.583 20.978,-18.583 l 18.771,0.046 c 4.691,0 7.037,2.315 7.037,6.946 -0.093,4.631 -2.378,6.993 -6.853,7.085 z"
           id="path2942" />
      </g>
      <path
         style="fill:#231f20"
         d="m 414,324.985 c 0,4.631 -2.346,6.945 -7.041,6.945 h -23.553 c -14.081,0 -21.119,-7.193 -21.119,-21.586 v -18.111 c 0,-14.204 7.038,-21.305 21.119,-21.305 h 23.177 c 4.913,-0.03 7.367,2.3 7.367,6.993 -0.03,4.568 -2.422,6.898 -7.177,6.991 h -23.558 c -4.568,-0.031 -6.853,2.424 -6.853,7.367 v 18.393 c 0,4.786 2.397,7.182 7.183,7.182 l 23.556,0.05 c 4.599,0 6.899,2.359 6.899,7.081 z"
         id="path2944" />
      <path
         style="fill:#231f20"
         d="m 524.504,285.006 c -4.778,0 -7.175,0 -7.175,0 h -11.595 c -4.779,0 -7.175,2.411 -7.175,7.228 V 324.8 c 0,4.755 -2.346,7.131 -7.037,7.131 -4.693,0 -7.039,-2.346 -7.039,-7.038 v -32.377 c 0,-14.39 7.039,-21.587 21.115,-21.587 l 18.768,0.047 c 4.694,0 7.04,2.315 7.04,6.945 v -0.047 c 0,4.754 -2.298,7.132 -6.902,7.132 z"
         id="path2946" />
      <path
         style="fill:#231f20"
         d="m 592.554,277.921 v 46.971 c 0,4.631 -2.346,6.945 -7.039,6.945 l -23.56,-0.044 c -14.077,0 -21.116,-7.199 -21.116,-21.586 v -32.38 c 0,-4.695 2.347,-7.042 7.039,-7.042 4.691,0 7.037,2.38 7.037,7.135 v 32.566 c 0,4.816 2.396,7.23 7.182,7.23 h 16.381 V 277.92 c 0,-4.755 2.389,-7.135 7.175,-7.135 4.603,0.002 6.901,2.382 6.901,7.136 z"
         id="path2948" />
      <path
         style="fill:#231f20"
         d="m 468.196,270.787 c -4.785,0 -7.175,2.38 -7.175,7.135 v 39.796 h -16.378 c -4.786,0 -7.182,-2.414 -7.182,-7.23 v -32.566 c 0,-4.755 -2.346,-7.135 -7.039,-7.135 -4.691,0 -7.037,2.346 -7.037,7.042 v 32.38 c 0,14.387 7.037,21.586 21.114,21.586 h 4.692 4.841 c 4.655,0 7.021,1.59 7.082,4.78 -0.062,3.188 -2.427,4.791 -7.082,4.791 h -18.961 c -4.506,0.025 -6.771,2.482 -6.809,7.361 0.037,4.351 2.32,6.511 6.853,6.48 l 19.004,0.048 c 13.854,-0.037 20.829,-6.238 20.967,-18.582 h 0.011 c 0,-0.037 -0.005,-0.062 -0.005,-0.099 0,-0.031 0.005,-0.057 0.005,-0.087 h -0.011 v -0.007 l 0.011,0.007 v -4.693 -6.317 -47.555 c 0.001,-4.755 -2.294,-7.135 -6.901,-7.135 z"
         id="path2950" />
    </g>
  </g>
</svg>
