<?xml version="1.0" encoding="utf-8"?>
<!-- Generator: Adobe Illustrator 14.0.0, SVG Export Plug-In . SVG Version: 6.00 Build 43363)  -->
<!DOCTYPE svg PUBLIC "-//W3C//DTD SVG 1.1//EN" "http://www.w3.org/Graphics/SVG/1.1/DTD/svg11.dtd">
<svg version="1.1" id="Layer_1" xmlns="http://www.w3.org/2000/svg" xmlns:xlink="http://www.w3.org/1999/xlink" x="0px" y="0px"
	 width="800px" height="600px" viewBox="0 0 800 600" enable-background="new 0 0 800 600" xml:space="preserve">
<path fill="#FFFFFF" stroke="#231F20" stroke-width="8.5987" stroke-linecap="round" stroke-linejoin="round" d="M293.099,273.061
	h-15.328v-24.104c0,0,0-6.054-6.172-6.054h-75.429c-6.176,0-6.176,6.054-6.176,6.054v24.104h-13.853h-1.766l60.098,52.105
	l60.276-52.105H293.099z"/>
<g>
	<path fill="#2EB3DC" d="M303.672,345.221c0,4.495-3.678,8.173-8.173,8.173H172.853c-4.495,0-8.173-3.678-8.173-8.173v-65.688
		c0-4.495,3.678-8.173,8.173-8.173h122.646c4.495,0,8.173,3.678,8.173,8.173V345.221z"/>
	<path fill="none" stroke="#231F20" stroke-width="7.6267" stroke-linecap="round" stroke-linejoin="round" d="M303.672,345.221
		c0,4.495-3.678,8.173-8.173,8.173H172.853c-4.495,0-8.173-3.678-8.173-8.173v-65.688c0-4.495,3.678-8.173,8.173-8.173h122.646
		c4.495,0,8.173,3.678,8.173,8.173V345.221z"/>
</g>
<polyline fill="#231F20" points="164.68,270.876 231.638,219.65 303.672,270.876 "/>
<g>
	<polygon fill="#231F20" points="237.621,306.272 235.253,302.394 232.881,298.521 178.416,337.145 	"/>
</g>
<g>
	<polygon fill="#231F20" points="237.661,298.546 235.253,302.394 232.838,306.242 290.706,337.145 	"/>
</g>
<path fill="#FFFFFF" stroke="#231F20" stroke-width="5.069" stroke-linecap="round" stroke-linejoin="round" d="M300.687,273.061
	h-22.916v-24.104c0,0,0-6.054-6.172-6.054h-75.457c-6.173,0-6.173,6.054-6.173,6.054v24.104h-22.186h-1.766l68.456,52.105
	l67.864-52.105H300.687z"/>
<line fill="#FFFFFF" stroke="#231F20" stroke-width="5.069" stroke-linecap="round" stroke-linejoin="round" x1="219.662" y1="271.36" x2="248.389" y2="271.36"/>
<line fill="#FFFFFF" stroke="#231F20" stroke-width="5.069" stroke-linecap="round" stroke-linejoin="round" x1="219.662" y1="284.028" x2="248.389" y2="284.028"/>
<g>
	<polyline fill="none" stroke="#231F20" stroke-width="4.9182" stroke-linecap="round" stroke-linejoin="round" points="
		168.218,272.971 234.545,321.641 300.476,273.263 	"/>
</g>
<g>
	<g>
		<path fill="#231F20" d="M642.008,285.148h-18.818c-4.78,0-7.175,1.595-7.175,4.785c0,3.004,2.407,4.506,7.224,4.506h4.556
			c14.016,0.22,21.004,6.476,20.974,18.771c-0.063,12.482-7.059,18.739-20.974,18.771l-19.004-0.051
			c-4.543,0.037-6.827-2.123-6.853-6.474c0.025-4.878,2.297-7.336,6.803-7.366h18.955c4.668,0,7.026-1.595,7.088-4.786
			c0-3.097-2.315-4.674-6.945-4.734h-4.55c-14.175,0.061-21.244-6.245-21.214-18.916c-0.094-12.389,6.901-18.583,20.978-18.583
			l18.771,0.046c4.691,0,7.037,2.315,7.037,6.946C648.768,282.694,646.483,285.056,642.008,285.148z"/>
	</g>
	<path fill="#231F20" d="M414,324.985c0,4.631-2.346,6.945-7.041,6.945h-23.553c-14.081,0-21.119-7.193-21.119-21.586v-18.111
		c0-14.204,7.038-21.305,21.119-21.305h23.177c4.913-0.03,7.367,2.3,7.367,6.993c-0.03,4.568-2.422,6.898-7.177,6.991h-23.558
		c-4.568-0.031-6.853,2.424-6.853,7.367v18.393c0,4.786,2.397,7.182,7.183,7.182l23.556,0.05C411.7,317.904,414,320.263,414,324.985
		z"/>
	<path fill="#231F20" d="M524.504,285.006c-4.778,0-7.175,0-7.175,0h-11.595c-4.779,0-7.175,2.411-7.175,7.228V324.8
		c0,4.755-2.346,7.131-7.037,7.131c-4.693,0-7.039-2.346-7.039-7.038v-32.377c0-14.39,7.039-21.587,21.115-21.587l18.768,0.047
		c4.694,0,7.04,2.315,7.04,6.945v-0.047C531.406,282.628,529.108,285.006,524.504,285.006z"/>
	<path fill="#231F20" d="M592.554,277.921v46.971c0,4.631-2.346,6.945-7.039,6.945l-23.56-0.044
		c-14.077,0-21.116-7.199-21.116-21.586v-32.38c0-4.695,2.347-7.042,7.039-7.042c4.691,0,7.037,2.38,7.037,7.135v32.566
		c0,4.816,2.396,7.23,7.182,7.23h16.381v-39.796c0-4.755,2.389-7.135,7.175-7.135C590.256,270.787,592.554,273.167,592.554,277.921z
		"/>
	<path fill="#231F20" d="M468.196,270.787c-4.785,0-7.175,2.38-7.175,7.135v39.796h-16.378c-4.786,0-7.182-2.414-7.182-7.23v-32.566
		c0-4.755-2.346-7.135-7.039-7.135c-4.691,0-7.037,2.346-7.037,7.042v32.38c0,14.387,7.037,21.586,21.114,21.586h4.692h4.841
		c4.655,0,7.021,1.59,7.082,4.78c-0.062,3.188-2.427,4.791-7.082,4.791h-18.961c-4.506,0.025-6.771,2.482-6.809,7.361
		c0.037,4.351,2.32,6.511,6.853,6.48l19.004,0.048c13.854-0.037,20.829-6.238,20.967-18.582h0.011c0-0.037-0.005-0.062-0.005-0.099
		c0-0.031,0.005-0.057,0.005-0.087h-0.011v-0.007l0.011,0.007v-4.693v-6.317v-47.555
		C475.098,273.167,472.803,270.787,468.196,270.787z"/>
</g>
</svg>
